<svg xmlns="http://www.w3.org/2000/svg" width="136.957" height="153.007" viewBox="0 0 136.957 153.007"><g transform="translate(-245.706 -123.45)"><path d="M244.721-633.971s-7.031-.586-7.031,1.59,7.031,1.841,7.031,1.841" transform="translate(86.096 759)" fill="none" stroke="#fff" stroke-width="3"/><path d="M230.868-631.249v23.339s-5.357,2.155-8.2,5.859-3.181,8.956-3.181,8.956l-.251,87.388s2.595,4.185,16.908,4.185,16.155-4.185,16.155-4.185" transform="translate(92.919 757.967)" fill="none" stroke="#fff" stroke-width="3"/><path d="M196.252-519.367a86.954,86.954,0,0,1-13.863-.707,97.673,97.673,0,0,1-14-3.254s-2.028,11.993,5.376,20.936,22.492,8.346,22.492,8.346" transform="translate(111.808 718.076)" fill="none" stroke="#fff" stroke-width="3"/><path d="M205.337-484.158v32.742" transform="translate(98.055 703.598)" fill="none" stroke="#fff" stroke-width="3"/><path d="M204.364-440.3s-14.288.105-14.288,4.527,14.288,4.81,14.288,4.81" transform="translate(103.696 687.385)" fill="none" stroke="#fff" stroke-width="3"/><path d="M154.85-469.918s-39.751,5.234-38.619,23.624,34.658,22.917,68.043,22.917,61.394-8.346,65.5-22.917-27.238-23.624-27.238-23.624" transform="translate(131 698.334)" fill="none" stroke="#fff" stroke-width="3"/><path d="M-18.451,0h-1.562l-1.875-3.141a6.84,6.84,0,0,0-.5-.746,2.85,2.85,0,0,0-.5-.5,1.718,1.718,0,0,0-.547-.285,2.249,2.249,0,0,0-.66-.09H-25.17V0h-1.312V-11.2h3.344a4.765,4.765,0,0,1,1.355.184,3.033,3.033,0,0,1,1.078.559,2.6,2.6,0,0,1,.715.934,3.1,3.1,0,0,1,.258,1.309,3.151,3.151,0,0,1-.176,1.074,2.805,2.805,0,0,1-.5.871,3.031,3.031,0,0,1-.781.652,3.988,3.988,0,0,1-1.027.418v.031a2.363,2.363,0,0,1,.488.285,2.687,2.687,0,0,1,.395.379,5.019,5.019,0,0,1,.371.5q.184.277.41.645ZM-25.17-10.016v4.063h1.781a2.7,2.7,0,0,0,.91-.148,2.107,2.107,0,0,0,.723-.426,1.931,1.931,0,0,0,.477-.68,2.275,2.275,0,0,0,.172-.9,1.756,1.756,0,0,0-.582-1.4,2.5,2.5,0,0,0-1.684-.5ZM-7.774,0h-5.938V-11.2h5.688v1.188H-12.4v3.727h4.047v1.18H-12.4v3.922h4.625ZM4.863-11.2l-3.7,7.063V0H-.145V-4.109l-3.6-7.094h1.492L.254-6.141q.047.094.273.688H.551a4.11,4.11,0,0,1,.3-.687L3.473-11.2ZM15.563,0H9.626V-11.2h5.688v1.188H10.938v3.727h4.047v1.18H10.938v3.922h4.625ZM20.4-.453V-2a3,3,0,0,0,.637.422,5.159,5.159,0,0,0,.781.316,6.219,6.219,0,0,0,.824.2,4.6,4.6,0,0,0,.766.07,3,3,0,0,0,1.809-.449,1.52,1.52,0,0,0,.6-1.293,1.518,1.518,0,0,0-.2-.789,2.244,2.244,0,0,0-.551-.613,5.465,5.465,0,0,0-.832-.531q-.48-.254-1.035-.535-.586-.3-1.094-.6a4.74,4.74,0,0,1-.883-.672,2.8,2.8,0,0,1-.59-.832,2.575,2.575,0,0,1-.215-1.09,2.563,2.563,0,0,1,.336-1.332,2.881,2.881,0,0,1,.883-.934,4,4,0,0,1,1.246-.547,5.706,5.706,0,0,1,1.426-.18,5.464,5.464,0,0,1,2.414.4v1.477A4.376,4.376,0,0,0,24.17-10.2a4.189,4.189,0,0,0-.859.09,2.428,2.428,0,0,0-.766.293A1.7,1.7,0,0,0,22-9.3a1.389,1.389,0,0,0-.211.781,1.608,1.608,0,0,0,.16.742,1.819,1.819,0,0,0,.473.57,4.708,4.708,0,0,0,.762.5q.449.242,1.035.531.6.3,1.141.625a5.214,5.214,0,0,1,.945.727,3.229,3.229,0,0,1,.645.883,2.482,2.482,0,0,1,.238,1.109,2.813,2.813,0,0,1-.324,1.4,2.661,2.661,0,0,1-.875.934,3.822,3.822,0,0,1-1.27.52A6.953,6.953,0,0,1,23.2.188a6.176,6.176,0,0,1-.656-.043Q22.154.1,21.748.02a6.5,6.5,0,0,1-.77-.2A2.4,2.4,0,0,1,20.4-.453Z" transform="translate(336.696 208.115) rotate(-90)" fill="#fff"/></g></svg>